<?xml version="1.0" encoding="UTF-8" standalone="no"?>
<!-- Created with Inkscape (http://www.inkscape.org/) -->

<svg
   xmlns:dc="http://purl.org/dc/elements/1.1/"
   xmlns:cc="http://creativecommons.org/ns#"
   xmlns:rdf="http://www.w3.org/1999/02/22-rdf-syntax-ns#"
   xmlns:svg="http://www.w3.org/2000/svg"
   xmlns="http://www.w3.org/2000/svg"
   xmlns:xlink="http://www.w3.org/1999/xlink"
   xmlns:inkscape="http://www.inkscape.org/namespaces/inkscape"
   version="1.1"
   width="22"
   height="22"
   viewBox="0 0 22 22"
   id="svg2">
  <defs
     id="defs4">
    <linearGradient
       id="linearGradient4390">
      <stop
         id="stop4392"
         style="stop-color:#9465cc;stop-opacity:1"
         offset="0" />
      <stop
         id="stop4394"
         style="stop-color:#63339b;stop-opacity:1"
         offset="1" />
    </linearGradient>
    <linearGradient
       x1="10.702213"
       y1="4.9517102"
       x2="10.702213"
       y2="20.997988"
       id="linearGradient4396"
       xlink:href="#linearGradient4390"
       gradientUnits="userSpaceOnUse" />
  </defs>
  <metadata
     id="metadata7">
    <rdf:RDF>
      <cc:Work
         rdf:about="">
        <dc:format>image/svg+xml</dc:format>
        <dc:type
           rdf:resource="http://purl.org/dc/dcmitype/StillImage" />
        <dc:title />
      </cc:Work>
    </rdf:RDF>
  </metadata>
  <g
     transform="translate(0,-1030.3622)"
     id="layer1">
    <path
       d="m 8,5 0,1 -2,0 0,1 -2,0 0,3 2,0 0,-2 2,0 0,3 -2,0 0,3 -2,0 0,-3 -2,0 0,10 2,0 0,-3 2,0 0,-3 2,0 0,5 5,0 0,-5 2,0 0,3 2,0 0,3 2,0 0,-10 -2,0 0,3 -2,0 0,-3 -2,0 0,-3 2,0 0,2 2,0 0,-3 -2,0 0,-1 -2,0 0,-1 -5,0 z"
       inkscape:connector-curvature="0"
       transform="translate(0,1030.3622)"
       id="rect4184"
       style="fill:url(#linearGradient4396);fill-opacity:1;stroke:none" />
    <rect
       width="1"
       height="3"
       x="10"
       y="1031.3622"
       id="rect4250"
       style="fill:#ff3939;fill-opacity:1;stroke:none" />
  </g>
</svg>
